<?xml version="1.0" encoding="UTF-8" standalone="no"?>
<svg
   width="55mm"
   height="55mm"
   viewBox="0 0 55 55"
   version="1.1"
   id="svg8"
   inkscape:version="1.3.2 (091e20e, 2023-11-25)"
   sodipodi:docname="saturation.svg"
   xmlns:inkscape="http://www.inkscape.org/namespaces/inkscape"
   xmlns:sodipodi="http://sodipodi.sourceforge.net/DTD/sodipodi-0.dtd"
   xmlns="http://www.w3.org/2000/svg"
   xmlns:svg="http://www.w3.org/2000/svg"
   xmlns:rdf="http://www.w3.org/1999/02/22-rdf-syntax-ns#"
   xmlns:cc="http://creativecommons.org/ns#"
   xmlns:dc="http://purl.org/dc/elements/1.1/">
  <defs
     id="defs2" />
  <sodipodi:namedview
     id="base"
     pagecolor="#e563d8"
     bordercolor="#666666"
     borderopacity="1.0"
     inkscape:pageopacity="0"
     inkscape:pageshadow="2"
     inkscape:zoom="2.8688824"
     inkscape:cx="75.290644"
     inkscape:cy="135.59287"
     inkscape:document-units="mm"
     inkscape:current-layer="layer1"
     inkscape:document-rotation="0"
     showgrid="false"
     inkscape:window-width="1920"
     inkscape:window-height="1048"
     inkscape:window-x="0"
     inkscape:window-y="32"
     inkscape:window-maximized="1"
     showguides="true"
     inkscape:guide-bbox="true"
     inkscape:showpageshadow="0"
     inkscape:pagecheckerboard="0"
     inkscape:deskcolor="#d1d1d1" />
  <metadata
     id="metadata5">
    <rdf:RDF>
      <cc:Work
         rdf:about="">
        <dc:format>image/svg+xml</dc:format>
        <dc:type
           rdf:resource="http://purl.org/dc/dcmitype/StillImage" />
      </cc:Work>
    </rdf:RDF>
  </metadata>
  <g
     inkscape:label="레이어 1"
     inkscape:groupmode="layer"
     id="layer1">
    <circle
       style="fill:none;fill-opacity:0.766537;stroke:#0f0f0f;stroke-width:0.2;stroke-miterlimit:4;stroke-dasharray:none;stroke-opacity:1"
       id="path839"
       cx="27.384279"
       cy="27.674471"
       r="16.101233" />
    <ellipse
       style="fill:none;fill-opacity:0.766537;stroke:#0f0f0f;stroke-width:0.2;stroke-miterlimit:4;stroke-dasharray:none;stroke-opacity:1"
       id="circle981"
       cx="27.384279"
       cy="27.674471"
       rx="11.779024"
       ry="11.687637" />
    <ellipse
       style="fill:none;fill-opacity:0.766537;stroke:#0f0f0f;stroke-width:0.2;stroke-miterlimit:4;stroke-dasharray:none;stroke-opacity:1"
       id="ellipse983"
       cx="27.384279"
       cy="27.674471"
       rx="6.5445147"
       ry="6.4937401" />
    <path
       style="fill:none;stroke:#0f0f0f;stroke-width:0.332563;stroke-linecap:butt;stroke-linejoin:miter;stroke-miterlimit:4;stroke-dasharray:0.332563, 0.997689;stroke-dashoffset:0;stroke-opacity:1"
       d="M 3.3478242,27.825667 H 51.936611"
       id="path841" />
    <path
       style="fill:none;stroke:#0f0f0f;stroke-width:0.329415;stroke-linecap:butt;stroke-linejoin:miter;stroke-miterlimit:4;stroke-dasharray:0.329415, 0.988245;stroke-dashoffset:0;stroke-opacity:1"
       d="M 27.308684,4.0409521 V 51.043413"
       id="path843" />
    <path
       style="fill:none;stroke:#000000;stroke-width:0.4;stroke-linecap:butt;stroke-linejoin:miter;stroke-miterlimit:4;stroke-dasharray:none;stroke-opacity:1"
       d="M 3.0627525,4.2409072 V 51.108031"
       id="path860" />
    <path
       style="fill:none;stroke:#000000;stroke-width:0.4;stroke-linecap:butt;stroke-linejoin:miter;stroke-miterlimit:4;stroke-dasharray:none;stroke-opacity:1"
       d="M 49.929877,51.108031 H 3.0627525"
       id="path862" />
    <text
       xml:space="preserve"
       style="font-style:normal;font-weight:normal;font-size:5.62121px;line-height:1.25;font-family:sans-serif;fill:#000000;fill-opacity:1;stroke:none;stroke-width:0.14053;stroke-opacity:1"
       x="0.20352401"
       y="4.4327364"
       id="text866"><tspan
         sodipodi:role="line"
         id="tspan864"
         x="0.20352401"
         y="4.4327364"
         style="fill:#000000;fill-opacity:1;stroke:none;stroke-width:0.14053;stroke-opacity:1">Y</tspan></text>
    <text
       xml:space="preserve"
       style="font-style:normal;font-weight:normal;font-size:5.089px;line-height:1.25;font-family:sans-serif;fill:#000000;fill-opacity:1;stroke:none;stroke-width:0.127225;stroke-opacity:1"
       x="50.358768"
       y="54.510105"
       id="text870"><tspan
         sodipodi:role="line"
         id="tspan868"
         x="50.358768"
         y="54.510105"
         style="fill:#000000;fill-opacity:1;stroke:none;stroke-width:0.127225;stroke-opacity:1">X</tspan></text>
    <g
       aria-label="I"
       id="text874"
       style="font-style:normal;font-weight:normal;font-size:12.685px;line-height:1.25;font-family:sans-serif;fill:#000000;fill-opacity:1;stroke:none;stroke-width:0.317124;stroke-opacity:1"
       transform="matrix(0.51043559,0,0,0.51043559,13.019957,-43.068267)">
      <path
         d="m 73.131363,101.60055 h -3.641982 v -0.94147 h 1.2078 v -7.339707 h -1.2078 v -0.941465 h 3.641982 v 0.941465 h -1.2078 v 7.339707 h 1.2078 z"
         style="fill:#000000;fill-opacity:1;stroke:none;stroke-width:0.317124;stroke-opacity:1"
         id="path892" />
    </g>
    <text
       xml:space="preserve"
       style="font-style:normal;font-weight:normal;font-size:10.5834px;line-height:1.25;font-family:sans-serif;fill:#000000;fill-opacity:1;stroke:none;stroke-width:0.264583"
       x="46.585564"
       y="41.955353"
       id="text882"><tspan
         sodipodi:role="line"
         id="tspan880"
         x="46.585564"
         y="41.955353"
         style="stroke-width:0.264583" /></text>
    <g
       aria-label="II"
       id="text950"
       style="font-style:normal;font-weight:normal;font-size:7.76065px;line-height:1.25;font-family:sans-serif;fill:#000000;fill-opacity:1;stroke:none;stroke-width:0.194016;stroke-opacity:1"
       transform="matrix(0.8343211,0,0,0.8343211,-14.084707,-73.711678)">
      <path
         d="M 24.725541,99.572426 H 22.497386 V 98.99644 h 0.738929 v -4.490415 h -0.738929 v -0.575986 h 2.228155 v 0.575986 h -0.738929 v 4.490415 h 0.738929 z"
         style="fill:#000000;fill-opacity:1;stroke:none;stroke-width:0.194016;stroke-opacity:1"
         id="path960" />
      <path
         d="M 27.991987,99.572426 H 25.763832 V 98.99644 h 0.738929 v -4.490415 h -0.738929 v -0.575986 h 2.228155 v 0.575986 h -0.738929 v 4.490415 h 0.738929 z"
         style="fill:#000000;fill-opacity:1;stroke:none;stroke-width:0.194016;stroke-opacity:1"
         id="path962" />
    </g>
    <g
       aria-label="III"
       id="text954"
       style="font-style:normal;font-weight:normal;font-size:7.76065px;line-height:1.25;font-family:sans-serif;fill:#000000;fill-opacity:1;stroke:none;stroke-width:0.194016;stroke-opacity:1"
       transform="matrix(0.8343211,0,0,0.8343211,-23.626229,-65.012055)">
      <path
         d="m 35.879434,136.47865 h -2.228155 v -0.57598 h 0.738929 v -4.49042 h -0.738929 v -0.57598 h 2.228155 v 0.57598 h -0.738929 v 4.49042 h 0.738929 z"
         style="fill:#000000;fill-opacity:1;stroke:none;stroke-width:0.194016;stroke-opacity:1"
         id="path965" />
      <path
         d="m 39.14588,136.47865 h -2.228156 v -0.57598 h 0.738929 v -4.49042 h -0.738929 v -0.57598 h 2.228156 v 0.57598 h -0.73893 v 4.49042 h 0.73893 z"
         style="fill:#000000;fill-opacity:1;stroke:none;stroke-width:0.194016;stroke-opacity:1"
         id="path967" />
      <path
         d="M 42.412325,136.47865 H 40.18417 v -0.57598 h 0.738929 v -4.49042 H 40.18417 v -0.57598 h 2.228155 v 0.57598 h -0.738929 v 4.49042 h 0.738929 z"
         style="fill:#000000;fill-opacity:1;stroke:none;stroke-width:0.194016;stroke-opacity:1"
         id="path969" />
    </g>
    <g
       aria-label="IV"
       id="text958"
       style="font-style:normal;font-weight:normal;font-size:7.76065px;line-height:1.25;font-family:sans-serif;fill:#000000;fill-opacity:1;stroke:none;stroke-width:0.194016;stroke-opacity:1"
       transform="matrix(0.8343211,0,0,0.8343211,-9.2204017,-62.018636)">
      <path
         d="m 65.032277,133.32327 h -2.228155 v -0.57598 h 0.738929 v -4.49042 h -0.738929 v -0.57598 h 2.228155 v 0.57598 h -0.738929 v 4.49042 h 0.738929 z"
         style="fill:#000000;fill-opacity:1;stroke:none;stroke-width:0.194016;stroke-opacity:1"
         id="path972" />
      <path
         d="m 70.758031,127.68089 -2.053844,5.64238 H 67.70379 l -2.053844,-5.64238 h 0.803349 l 1.76964,4.96408 1.769641,-4.96408 z"
         style="fill:#000000;fill-opacity:1;stroke:none;stroke-width:0.194016;stroke-opacity:1"
         id="path974" />
    </g>
    <circle
       style="fill:#000000;fill-opacity:1;stroke:#000000;stroke-width:0.329414;stroke-miterlimit:4;stroke-dasharray:none;stroke-dashoffset:0;stroke-opacity:1"
       id="path979"
       cx="27.31813"
       cy="27.839882"
       r="0.280633" />
    <g
       aria-label="F"
       id="text987"
       style="font-style:normal;font-weight:normal;font-size:5.51419px;line-height:1.25;font-family:sans-serif;fill:#000000;fill-opacity:1;stroke:none;stroke-width:0.137854;stroke-opacity:1"
       transform="matrix(0.8343211,0,0,0.8343211,-14.084707,-73.711678)">
      <path
         d="m 53.46366,123.47307 h -2.027434 v 1.13084 h 1.742031 v 0.47388 h -1.742031 v 1.9305 h -0.533111 v -4.00909 h 2.560545 z"
         style="fill:#000000;fill-opacity:1;stroke:none;stroke-width:0.137854;stroke-opacity:1"
         id="path989" />
    </g>
    <g
       aria-label="O"
       id="text994"
       style="font-style:normal;font-weight:normal;font-size:5.05572px;line-height:1.25;font-family:sans-serif;fill:#000000;fill-opacity:1;stroke:none;stroke-width:0.126392;stroke-opacity:1"
       transform="matrix(0.8343211,0,0,0.8343211,-14.084707,-73.711678)">
      <path
         d="m 20.34495,150.51939 q 0.224644,0.24686 0.343137,0.60481 0.120962,0.35795 0.120962,0.81218 0,0.45422 -0.12343,0.81464 -0.120962,0.35795 -0.340669,0.5974 -0.227112,0.24933 -0.538158,0.37523 -0.308576,0.1259 -0.706023,0.1259 -0.387572,0 -0.706023,-0.12837 -0.315983,-0.12836 -0.538158,-0.37276 -0.222175,-0.24439 -0.343137,-0.59987 -0.118494,-0.35548 -0.118494,-0.81217 0,-0.44929 0.118494,-0.80477 0.118493,-0.35795 0.345606,-0.61222 0.217238,-0.24192 0.538157,-0.37029 0.323389,-0.12837 0.703555,-0.12837 0.394978,0 0.708492,0.13084 0.315983,0.12837 0.535689,0.36782 z m -0.04443,1.41699 q 0,-0.7159 -0.32092,-1.10347 -0.320919,-0.39004 -0.876357,-0.39004 -0.560376,0 -0.881295,0.39004 -0.318451,0.38757 -0.318451,1.10347 0,0.7233 0.325857,1.1084 0.325857,0.38264 0.873889,0.38264 0.548032,0 0.87142,-0.38264 0.325857,-0.3851 0.325857,-1.1084 z"
         style="fill:#000000;fill-opacity:1;stroke:none;stroke-width:0.126392;stroke-opacity:1"
         id="path996" />
    </g>
    <text
       xml:space="preserve"
       style="font-style:normal;font-weight:normal;font-size:10.5834px;line-height:1.25;font-family:sans-serif;fill:#000000;fill-opacity:1;stroke:none;stroke-width:0.264583"
       x="6.4545588"
       y="14.499376"
       id="text1001"><tspan
         sodipodi:role="line"
         id="tspan999"
         x="6.4545588"
         y="14.499376"
         style="stroke-width:0.264583" /></text>
  </g>
</svg>
